<?xml version="1.0" standalone="no"?>
<!DOCTYPE svg PUBLIC "-//W3C//DTD SVG 20010904//EN"
 "http://www.w3.org/TR/2001/REC-SVG-20010904/DTD/svg10.dtd">
<svg version="1.0" xmlns="http://www.w3.org/2000/svg"
 width="512.000000pt" height="512.000000pt" viewBox="0 0 512.000000 512.000000"
 preserveAspectRatio="xMidYMid meet">
<metadata>
Created by potrace 1.14, written by Peter Selinger 2001-2017
</metadata>
<g transform="translate(0.000000,512.000000) scale(0.100000,-0.100000)"
fill="#000000" stroke="none">
<path d="M2650 4673 c-203 -87 -380 -255 -410 -389 -18 -77 5 -154 58 -197 12
-10 29 -25 37 -33 13 -14 16 -12 25 13 61 163 194 287 324 300 l54 6 -31 -62
c-38 -77 -42 -162 -12 -229 l20 -44 30 58 c41 78 128 163 209 203 60 29 66 35
76 74 6 23 19 61 30 85 19 40 19 43 3 49 -43 17 -250 5 -309 -17 -15 -6 -33
-9 -40 -6 -18 7 -9 102 16 165 11 29 20 54 20 56 0 9 -16 4 -100 -32z"/>
<path d="M1080 4692 c-70 -10 -200 -45 -254 -69 -239 -105 -419 -328 -480
-591 -19 -81 -19 -268 0 -357 38 -181 139 -356 269 -469 25 -21 45 -44 45 -50
0 -6 -11 -28 -25 -48 -58 -86 -185 -364 -200 -440 -3 -13 6 -20 36 -28 21 -6
39 -13 39 -16 0 -3 -19 -31 -43 -62 -73 -96 -136 -209 -152 -273 -6 -23 -2
-27 38 -43 l44 -17 -5 -57 c-14 -148 -6 -296 23 -417 9 -38 18 -74 19 -80 18
-85 100 -262 169 -368 199 -306 496 -534 922 -708 185 -75 496 -149 755 -178
88 -10 524 -7 595 4 294 46 452 81 620 138 128 44 164 59 306 129 473 233 793
602 899 1038 27 109 35 197 32 358 l-2 144 40 15 c22 9 40 20 40 26 0 26 -88
191 -141 264 -33 46 -57 87 -54 93 3 5 16 10 28 10 46 0 48 11 16 100 -31 88
-114 263 -171 362 l-32 57 59 59 c138 134 205 250 251 431 81 319 -30 647
-293 862 -176 144 -405 209 -633 178 -171 -24 -354 -118 -473 -244 -79 -83
-178 -257 -181 -318 -1 -27 3 -30 79 -56 226 -77 478 -238 658 -423 82 -84
207 -238 207 -255 0 -6 -24 -17 -52 -23 -78 -16 -89 -26 -58 -51 100 -83 129
-112 184 -181 58 -72 112 -167 150 -262 21 -50 20 -58 -4 -86 l-20 -23 69 -68
c47 -47 81 -93 110 -149 23 -44 40 -80 38 -80 -2 0 -38 15 -78 34 -41 19 -76
30 -78 25 -1 -6 9 -47 23 -92 14 -45 30 -109 35 -142 9 -63 7 -312 -3 -355
-11 -49 -17 -80 -17 -82 2 -3 -39 -121 -61 -178 -55 -143 -156 -290 -287 -420
-161 -160 -343 -278 -563 -364 -51 -21 -102 -41 -113 -45 -79 -32 -345 -94
-497 -115 -146 -21 -442 -28 -578 -13 -147 16 -166 19 -266 38 -665 127 -1145
475 -1328 961 -84 226 -96 519 -27 726 31 93 28 96 -49 61 -83 -38 -90 -40
-83 -21 27 72 88 159 161 229 l55 52 -23 19 c-28 23 -24 58 20 151 63 132 181
280 293 365 20 16 37 32 37 36 0 4 -29 16 -65 25 -36 10 -68 21 -70 24 -6 11
154 201 239 285 183 178 421 325 658 408 80 27 79 17 7 165 -108 219 -314 380
-564 438 -33 8 -206 13 -245 7z"/>
<path d="M1805 3109 c-57 -13 -112 -38 -176 -80 -156 -104 -395 -435 -476
-661 -22 -61 -27 -91 -27 -178 -1 -100 1 -109 33 -174 41 -84 104 -146 190
-189 62 -30 71 -32 176 -32 96 1 118 4 172 27 85 36 146 80 230 166 150 155
276 369 308 527 39 192 0 390 -96 493 -81 87 -214 127 -334 101z m145 -491
c70 -20 106 -119 66 -180 -19 -29 -72 -58 -106 -58 -58 0 -113 53 -116 113 -2
51 17 92 56 116 35 21 53 22 100 9z"/>
<path d="M3150 3106 c-183 -49 -278 -201 -278 -443 0 -126 23 -218 89 -351
115 -233 321 -444 493 -504 57 -19 166 -23 236 -8 116 26 223 110 271 214 65
141 52 279 -46 472 -129 254 -322 492 -462 569 -99 55 -215 74 -303 51z m120
-496 c50 -27 74 -107 47 -160 -44 -87 -180 -85 -218 3 -46 107 69 212 171 157z"/>
<path d="M2243 1845 c-56 -24 -80 -104 -49 -163 8 -15 49 -52 92 -82 141 -102
159 -116 181 -149 28 -42 31 -129 6 -171 -32 -55 -137 -63 -228 -18 -22 11
-72 53 -111 94 -76 79 -106 91 -137 56 -73 -80 117 -293 293 -328 93 -19 187
-5 243 37 26 19 30 19 46 5 97 -87 318 -59 447 57 99 90 139 182 99 227 -31
35 -68 26 -111 -27 -92 -112 -153 -148 -256 -148 -60 0 -70 3 -95 27 -23 23
-28 38 -31 93 -4 59 -2 69 22 100 15 19 76 69 136 110 62 43 118 90 129 109
31 50 28 105 -10 147 l-30 34 -303 1 c-230 2 -310 -1 -333 -11z"/>
</g>
</svg>
